<svg width="59" height="57" viewBox="0 0 59 57" fill="none" xmlns="http://www.w3.org/2000/svg">
<ellipse cx="27.9828" cy="29.4973" rx="27.9474" ry="26.5476" fill="#BF584E"/>
<path d="M9.48 33.21C7.94 33.21 6.56 32.96 5.34 32.46C4.12 31.96 3.14 31.22 2.4 30.24C1.68 29.26 1.3 28.08 1.26 26.7H6.72C6.8 27.48 7.07 28.08 7.53 28.5C7.99 28.9 8.59 29.1 9.33 29.1C10.09 29.1 10.69 28.93 11.13 28.59C11.57 28.23 11.79 27.74 11.79 27.12C11.79 26.6 11.61 26.17 11.25 25.83C10.91 25.49 10.48 25.21 9.96 24.99C9.46 24.77 8.74 24.52 7.8 24.24C6.44 23.82 5.33 23.4 4.47 22.98C3.61 22.56 2.87 21.94 2.25 21.12C1.63 20.3 1.32 19.23 1.32 17.91C1.32 15.95 2.03 14.42 3.45 13.32C4.87 12.2 6.72 11.64 9 11.64C11.32 11.64 13.19 12.2 14.61 13.32C16.03 14.42 16.79 15.96 16.89 17.94H11.34C11.3 17.26 11.05 16.73 10.59 16.35C10.13 15.95 9.54 15.75 8.82 15.75C8.2 15.75 7.7 15.92 7.32 16.26C6.94 16.58 6.75 17.05 6.75 17.67C6.75 18.35 7.07 18.88 7.71 19.26C8.35 19.64 9.35 20.05 10.71 20.49C12.07 20.95 13.17 21.39 14.01 21.81C14.87 22.23 15.61 22.84 16.23 23.64C16.85 24.44 17.16 25.47 17.16 26.73C17.16 27.93 16.85 29.02 16.23 30C15.63 30.98 14.75 31.76 13.59 32.34C12.43 32.92 11.06 33.21 9.48 33.21ZM38.557 11.94V33H33.427V24.33H25.447V33H20.317V11.94H25.447V20.19H33.427V11.94H38.557ZM47.3904 16.05V20.31H54.2604V24.27H47.3904V28.89H55.1604V33H42.2604V11.94H55.1604V16.05H47.3904Z" fill="white"/>
<path d="M7.7984 36.8717L12.4563 43.7544L28.5002 47.6874L42.4739 43.7544L48.1669 36.8717" stroke="black"/>
</svg>
